# xmcd
#
# Track frame offsets:
#	150
#	13248
#	24246
#	41694
#	52542
#	65190
#	77238
#	91611
#	102909
#	113982
#	124530
#	136728
#	153051
#	166224
#	178722
#	190095
#	201693
#	216366
#	230514
#	241662
#	255360
#
# Disc length: 3684 seconds
#
# Revision: 0
# Processed by: cddbd v1.5.2PL0 Copyright (c) Steve Scherf et al.
# Submitted via: EZCDAudioConverter 2.1.7.1
#
DISCID=0e0e6215
DTITLE=Davy Graham - Folk, Blues and Beyond
DYEAR=1900
DGENRE=
TTITLE0=Leavin' Blues
TTITLE1=Cocaine
TTITLE2=Sally Free And Easy
TTITLE3=Black Is The Colour Of My True Love's Hair
TTITLE4=Rock Me Baby
TTITLE5=Seven Gypsies
TTITLE6=Ballad Of The Sad Young Men
TTITLE7=Moanin'
TTITLE8=Skillet (Good N' Greasy)
TTITLE9=Ain't Nobody's Business What I Do
TTITLE10=Maajun
TTITLE11=I Can't Keep From Cryin' Sometimes
TTITLE12=Don't Think Twice, It's Alright
TTITLE13=My Babe
TTITLE14=Goin' Down Slow
TTITLE15=Better Git It In Your Soul
TTITLE16=She Moved Through The Fair
TTITLE17=Mustapha
TTITLE18=Anji
TTITLE19=Davy's Train Blues
TTITLE20=3/4 AD
EXTD=
EXTT0=
EXTT1=
EXTT2=
EXTT3=
EXTT4=
EXTT5=
EXTT6=
EXTT7=
EXTT8=
EXTT9=
EXTT10=
EXTT11=
EXTT12=
EXTT13=
EXTT14=
EXTT15=
EXTT16=
EXTT17=
EXTT18=
EXTT19=
EXTT20=
PLAYORDER=
